<svg width="500" height="500" viewBox="0 0 500 500" fill="none" xmlns="http://www.w3.org/2000/svg">
<rect width="500" height="500" rx="250" fill="#1F1D2E"/>
<path fill-rule="evenodd" clip-rule="evenodd" d="M249.983 307.358C245.184 295.832 235.279 286.579 222.287 283.098L165.941 268C158.794 294.673 174.623 322.09 201.296 329.237L241.543 340.021C244.382 340.782 247.27 339.981 249.298 338.146C251.3 340.672 254.679 341.909 257.99 341.021L298.237 330.237C324.911 323.09 340.74 295.673 333.593 269L277.247 284.098C264.632 287.478 254.928 296.298 249.983 307.358Z" fill="#31748F" fill-opacity="0.5"/>
<path fill-rule="evenodd" clip-rule="evenodd" d="M250 333.001C245.368 310.178 225.19 293 201 293L151 293C151 320.614 173.386 343 201 343L249 343H251L299 343C326.614 343 349 320.614 349 293L299 293C274.81 293 254.632 310.178 250 333.001Z" fill="#31748F"/>
<circle cx="249.5" cy="215.5" r="37.5" fill="#EFEFEF"/>
<path fill-rule="evenodd" clip-rule="evenodd" d="M246.918 156C256.118 161.312 262.991 169.106 267.181 178.048C279.154 168.575 295.298 164.686 311.178 168.941L298.237 217.237C293.474 235.013 279.709 247.973 263.16 252.525L263.178 252.593C258.805 253.765 254.411 254.319 250.09 254.309C245.768 254.319 241.374 253.765 237 252.593L237.018 252.525C220.47 247.973 206.704 235.013 201.941 217.237L189 168.941C205.262 164.584 221.801 168.766 233.853 178.74C234.217 178.036 234.599 177.336 235 176.642L246.918 156Z" fill="#EBBCBA"/>
</svg>
