<svg width="251" height="251" viewBox="0 0 251 251" fill="none" xmlns="http://www.w3.org/2000/svg">
<path d="M106.823 13.1631C116.739 2.2792 133.868 2.27919 143.784 13.1631L146.246 15.8662C150.193 20.1981 156.302 21.8348 161.886 20.0566L165.37 18.9472C179.4 14.4798 194.232 23.0431 197.378 37.4267L198.159 40.999C199.411 46.7241 203.883 51.1961 209.608 52.4482L213.181 53.2295C227.564 56.3754 236.128 71.2077 231.66 85.2373L230.551 88.7216C228.773 94.3057 230.409 100.414 234.741 104.361L237.444 106.823C248.328 116.739 248.328 133.868 237.444 143.784L234.741 146.246C230.409 150.193 228.773 156.302 230.551 161.886L231.66 165.37C236.128 179.4 227.564 194.232 213.181 197.378L209.608 198.159C203.883 199.411 199.411 203.883 198.159 209.608L197.378 213.181C194.232 227.564 179.4 236.128 165.37 231.66L161.886 230.551C156.302 228.773 150.193 230.409 146.246 234.741L143.784 237.444C133.868 248.328 116.739 248.328 106.823 237.444L104.361 234.741C100.414 230.409 94.3057 228.773 88.7216 230.551L85.2373 231.66C71.2077 236.128 56.3754 227.564 53.2295 213.181L52.4482 209.608C51.1961 203.883 46.7241 199.411 40.999 198.159L37.4267 197.378C23.0431 194.232 14.4797 179.4 18.9472 165.37L20.0566 161.886C21.8348 156.302 20.1981 150.193 15.8662 146.246L13.1631 143.784C2.27919 133.868 2.27919 116.739 13.1631 106.823L15.8662 104.361C20.1981 100.414 21.8348 94.3057 20.0566 88.7216L18.9472 85.2373C14.4798 71.2077 23.0431 56.3754 37.4267 53.2295L40.999 52.4482C46.7241 51.1961 51.1961 46.7241 52.4482 40.999L53.2295 37.4267C56.3754 23.0431 71.2077 14.4797 85.2373 18.9472L88.7216 20.0566C94.3057 21.8348 100.414 20.1981 104.361 15.8662L106.823 13.1631Z" fill="#26233A" stroke="url(#paint0_linear_2816_485)" stroke-width="10"/>
<path d="M124.804 84.8037C127.034 84.8037 128.698 86.2599 129.935 88.2827C132.583 92.616 138.843 95.1478 142.511 91.6359C146.428 87.8864 152.506 90.7935 151.527 96.1264C149.351 107.982 144.595 123.184 134.343 126.698C130.753 127.929 128.575 128.304 124.804 128.304C121.032 128.304 118.854 127.929 115.264 126.698C105.013 123.184 100.256 107.982 98.0805 96.1264C97.1016 90.7935 103.18 87.8864 107.096 91.6359C110.765 95.1478 117.024 92.616 119.673 88.2828C120.909 86.2599 122.573 84.8037 124.804 84.8037Z" fill="#EBBCBA"/>
<path d="M123.717 152.972C124.553 153.917 126.055 153.917 126.891 152.972C129.153 150.416 133.477 145.805 137.488 143.084C144.702 138.188 158.101 134.523 164.171 133.033C165.612 132.68 166.829 133.965 166.327 135.361C163.71 142.639 155.489 160.424 137.488 160.906C132.911 161.028 125.858 160.915 125.335 160.906C125.312 160.906 125.296 160.906 125.273 160.906C124.749 160.915 117.696 161.028 113.12 160.906C95.1187 160.424 86.8969 142.639 84.2808 135.361C83.7789 133.965 84.9954 132.68 86.4365 133.033C92.5063 134.523 105.905 138.188 113.12 143.084C117.13 145.805 121.454 150.416 123.717 152.972Z" fill="#31748F" fill-opacity="0.5"/>
<path d="M123.671 160.183C124.508 161.203 126.099 161.203 126.937 160.183C129.339 157.256 134.012 151.879 138.344 148.717C146.531 142.74 162.158 138.355 167.987 136.862C169.179 136.556 170.311 137.405 170.303 138.635C170.251 146.052 168.43 168.656 148.177 169.239C143.139 169.384 125.66 169.242 125.309 169.239C125.298 169.239 125.309 169.239 125.298 169.239C124.947 169.242 107.469 169.384 102.431 169.239C82.1774 168.656 80.3562 146.052 80.3049 138.635C80.2963 137.405 81.4285 136.556 82.6202 136.862C88.4498 138.355 104.077 142.74 112.264 148.717C116.595 151.879 121.268 157.256 123.671 160.183Z" fill="#31748F"/>
<defs>
<linearGradient id="paint0_linear_2816_485" x1="0.30368" y1="250.303" x2="250.304" y2="250.303" gradientUnits="userSpaceOnUse">
<stop stop-color="#EBBCBA"/>
<stop offset="0.5" stop-color="#C4A7E7"/>
<stop offset="1" stop-color="#9CCFD8"/>
</linearGradient>
</defs>
</svg>
